---
title: music - cue
categories: 
  - [play, media]
tags:
  - media
date: 2020/12/17 00:00:00
update: 2020/12/17 00:00:00
---

# 分轨 CUE 文件

```cue
REM DATE 2005
REM DISCID 8E0F5C0B
REM COMMENT "ExactAudioCopy v1.3"
CATALOG 0602498845233
PERFORMER "Sigur Ros"
TITLE "Takk..."
REM COMPOSER "Sigur Ros"
FILE "01 - Takk....wav" WAVE
  TRACK 01 AUDIO
    TITLE "Takk..."
    PERFORMER "Sigur Ros"
    REM COMPOSER "Sigur Ros"
    ISRC GBKEE0500001
    INDEX 01 00:00:00
FILE "02 - Glosoli.wav" WAVE
  TRACK 02 AUDIO
    TITLE "Glosoli"
    PERFORMER "Sigur Ros"
    REM COMPOSER "Sigur Ros"
    ISRC GBKEE0500002
    INDEX 01 00:00:00
FILE "03 - Hoppipolla.wav" WAVE
  TRACK 03 AUDIO
    TITLE "Hoppipolla"
    PERFORMER "Sigur Ros"
    REM COMPOSER "Sigur Ros"
    ISRC GBKEE0500003
    INDEX 01 00:00:00
FILE "04 - Meo Bloonasir.wav" WAVE
  TRACK 04 AUDIO
    TITLE "Meo Bloonasir"
    PERFORMER "Sigur Ros"
    REM COMPOSER "Sigur Ros"
    ISRC GBKEE0500004
    INDEX 01 00:00:00
FILE "05 - Se Lest.wav" WAVE
  TRACK 05 AUDIO
    TITLE "Se Lest"
    PERFORMER "Sigur Ros"
    REM COMPOSER "Sigur Ros"
    ISRC GBKEE0500005
    INDEX 01 00:00:00
FILE "06 - Saeglopur.wav" WAVE
  TRACK 06 AUDIO
    TITLE "Saeglopur"
    PERFORMER "Sigur Ros"
    REM COMPOSER "Sigur Ros"
    ISRC GBKEE0500006
    INDEX 01 00:00:00
FILE "07 - Milano.wav" WAVE
  TRACK 07 AUDIO
    TITLE "Milano"
    PERFORMER "Sigur Ros"
    REM COMPOSER "Sigur Ros"
    ISRC GBKEE0500007
    INDEX 01 00:00:00
FILE "08 - Gong.wav" WAVE
  TRACK 08 AUDIO
    TITLE "Gong"
    PERFORMER "Sigur Ros"
    REM COMPOSER "Sigur Ros"
    ISRC GBKEE0500008
    INDEX 01 00:00:00
FILE "09 - Andvari.wav" WAVE
  TRACK 09 AUDIO
    TITLE "Andvari"
    PERFORMER "Sigur Ros"
    REM COMPOSER "Sigur Ros"
    ISRC GBKEE0500009
    INDEX 01 00:00:00
FILE "10 - Svo Hljott.wav" WAVE
  TRACK 10 AUDIO
    TITLE "Svo Hljott"
    PERFORMER "Sigur Ros"
    REM COMPOSER "Sigur Ros"
    ISRC GBKEE0500010
    INDEX 01 00:00:00
FILE "11 - Heysatan.wav" WAVE
  TRACK 11 AUDIO
    TITLE "Heysatan"
    PERFORMER "Sigur Ros"
    REM COMPOSER "Sigur Ros"
    ISRC GBKEE0500011
    INDEX 01 00:00:00
```

# 整轨 CUE 文件

```cue
PERFORMER "李娜"
TITLE "信天游"
FILE "CDImage.wav" WAVE
  TRACK 01 AUDIO
    TITLE "信天游"
    PERFORMER "李娜"
    INDEX 00 00:00:00
    INDEX 01 00:00:02
  TRACK 02 AUDIO
    TITLE "风中的承诺"
    PERFORMER "李娜"
    INDEX 01 04:41:63
  TRACK 03 AUDIO
    TITLE "我热恋的故乡"
    PERFORMER "李娜"
    INDEX 01 09:26:12
  TRACK 04 AUDIO
    TITLE "小小少年"
    PERFORMER "李娜"
    INDEX 01 13:36:02
  TRACK 05 AUDIO
    TITLE "小路"
    PERFORMER "李娜"
    INDEX 01 17:35:40
  TRACK 06 AUDIO
    TITLE "夏日最后的玫瑰"
    PERFORMER "李娜"
    INDEX 01 21:50:21
  TRACK 07 AUDIO
    TITLE "小放牛"
    PERFORMER "李娜"
    INDEX 01 24:27:51
  TRACK 08 AUDIO
    TITLE "黄土高坡"
    PERFORMER "李娜"
    INDEX 01 28:11:43
  TRACK 09 AUDIO
    TITLE "喀秋莎"
    PERFORMER "李娜"
    INDEX 01 32:05:74
  TRACK 10 AUDIO
    TITLE "阿里郎"
    PERFORMER "李娜"
    INDEX 01 34:46:50
  TRACK 11 AUDIO
    TITLE "秋风歌"
    PERFORMER "李娜"
    INDEX 01 38:13:49
  TRACK 12 AUDIO
    TITLE "康定情歌"
    PERFORMER "李娜"
    INDEX 01 42:40:32
  TRACK 13 AUDIO
    TITLE "阿里山的姑娘"
    PERFORMER "李娜"
    INDEX 01 45:10:09
  TRACK 14 AUDIO
    TITLE "写不完的爱"
    PERFORMER "李娜"
    INDEX 01 48:31:17
```

